<svg id="visual" viewBox="0 0 960 540" width="960" height="540" xmlns="http://www.w3.org/2000/svg" xmlns:xlink="http://www.w3.org/1999/xlink" version="1.1"><path d="M0 33L17.8 42C35.7 51 71.3 69 106.8 79C142.3 89 177.7 91 213.2 92.8C248.7 94.7 284.3 96.3 320 89.2C355.7 82 391.3 66 426.8 53.5C462.3 41 497.7 32 533.2 28.3C568.7 24.7 604.3 26.3 640 27.2C675.7 28 711.3 28 746.8 32.5C782.3 37 817.7 46 853.2 56.8C888.7 67.7 924.3 80.3 942.2 86.7L960 93L960 0L942.2 0C924.3 0 888.7 0 853.2 0C817.7 0 782.3 0 746.8 0C711.3 0 675.7 0 640 0C604.3 0 568.7 0 533.2 0C497.7 0 462.3 0 426.8 0C391.3 0 355.7 0 320 0C284.3 0 248.7 0 213.2 0C177.7 0 142.3 0 106.8 0C71.3 0 35.7 0 17.8 0L0 0Z" fill="#6198ff"></path><path d="M0 87L17.8 96C35.7 105 71.3 123 106.8 133.8C142.3 144.7 177.7 148.3 213.2 153.8C248.7 159.3 284.3 166.7 320 156.8C355.7 147 391.3 120 426.8 113.7C462.3 107.3 497.7 121.7 533.2 117.2C568.7 112.7 604.3 89.3 640 89.3C675.7 89.3 711.3 112.7 746.8 119C782.3 125.3 817.7 114.7 853.2 121.8C888.7 129 924.3 154 942.2 166.5L960 179L960 91L942.2 84.7C924.3 78.3 888.7 65.7 853.2 54.8C817.7 44 782.3 35 746.8 30.5C711.3 26 675.7 26 640 25.2C604.3 24.3 568.7 22.7 533.2 26.3C497.7 30 462.3 39 426.8 51.5C391.3 64 355.7 80 320 87.2C284.3 94.3 248.7 92.7 213.2 90.8C177.7 89 142.3 87 106.8 77C71.3 67 35.7 49 17.8 40L0 31Z" fill="#4385ff"></path><path d="M0 217L17.8 212.5C35.7 208 71.3 199 106.8 194.5C142.3 190 177.7 190 213.2 202.7C248.7 215.3 284.3 240.7 320 247.8C355.7 255 391.3 244 426.8 229.5C462.3 215 497.7 197 533.2 186.2C568.7 175.3 604.3 171.7 640 174.3C675.7 177 711.3 186 746.8 194.2C782.3 202.3 817.7 209.7 853.2 213.3C888.7 217 924.3 217 942.2 217L960 217L960 177L942.2 164.5C924.3 152 888.7 127 853.2 119.8C817.7 112.7 782.3 123.3 746.8 117C711.3 110.7 675.7 87.3 640 87.3C604.3 87.3 568.7 110.7 533.2 115.2C497.7 119.7 462.3 105.3 426.8 111.7C391.3 118 355.7 145 320 154.8C284.3 164.7 248.7 157.3 213.2 151.8C177.7 146.3 142.3 142.7 106.8 131.8C71.3 121 35.7 103 17.8 94L0 85Z" fill="#2071ff"></path><path d="M0 384L17.8 385C35.7 386 71.3 388 106.8 393.5C142.3 399 177.7 408 213.2 404.3C248.7 400.7 284.3 384.3 320 375.3C355.7 366.3 391.3 364.7 426.8 369.2C462.3 373.7 497.7 384.3 533.2 373.5C568.7 362.7 604.3 330.3 640 323.2C675.7 316 711.3 334 746.8 348.3C782.3 362.7 817.7 373.3 853.2 370.7C888.7 368 924.3 352 942.2 344L960 336L960 215L942.2 215C924.3 215 888.7 215 853.2 211.3C817.7 207.7 782.3 200.3 746.8 192.2C711.3 184 675.7 175 640 172.3C604.3 169.7 568.7 173.3 533.2 184.2C497.7 195 462.3 213 426.8 227.5C391.3 242 355.7 253 320 245.8C284.3 238.7 248.7 213.3 213.2 200.7C177.7 188 142.3 188 106.8 192.5C71.3 197 35.7 206 17.8 210.5L0 215Z" fill="#0061f1"></path><path d="M0 482L17.8 483.7C35.7 485.3 71.3 488.7 106.8 489.5C142.3 490.3 177.7 488.7 213.2 492.3C248.7 496 284.3 505 320 505C355.7 505 391.3 496 426.8 496.8C462.3 497.7 497.7 508.3 533.2 513.7C568.7 519 604.3 519 640 518.2C675.7 517.3 711.3 515.7 746.8 506.7C782.3 497.7 817.7 481.3 853.2 478.7C888.7 476 924.3 487 942.2 492.5L960 498L960 334L942.2 342C924.3 350 888.7 366 853.2 368.7C817.7 371.3 782.3 360.7 746.8 346.3C711.3 332 675.7 314 640 321.2C604.3 328.3 568.7 360.7 533.2 371.5C497.7 382.3 462.3 371.7 426.8 367.2C391.3 362.7 355.7 364.3 320 373.3C284.3 382.3 248.7 398.7 213.2 402.3C177.7 406 142.3 397 106.8 391.5C71.3 386 35.7 384 17.8 383L0 382Z" fill="#0056d6"></path><path d="M0 541L17.8 541C35.7 541 71.3 541 106.8 541C142.3 541 177.7 541 213.2 541C248.7 541 284.3 541 320 541C355.7 541 391.3 541 426.8 541C462.3 541 497.7 541 533.2 541C568.7 541 604.3 541 640 541C675.7 541 711.3 541 746.8 541C782.3 541 817.7 541 853.2 541C888.7 541 924.3 541 942.2 541L960 541L960 496L942.2 490.5C924.3 485 888.7 474 853.2 476.7C817.7 479.3 782.3 495.7 746.8 504.7C711.3 513.7 675.7 515.3 640 516.2C604.3 517 568.7 517 533.2 511.7C497.7 506.3 462.3 495.7 426.8 494.8C391.3 494 355.7 503 320 503C284.3 503 248.7 494 213.2 490.3C177.7 486.7 142.3 488.3 106.8 487.5C71.3 486.7 35.7 483.3 17.8 481.7L0 480Z" fill="#004cbb"></path></svg>